<svg width="17" height="18" viewBox="0 0 17 18" fill="none" xmlns="http://www.w3.org/2000/svg">
<path fill-rule="evenodd" clip-rule="evenodd" d="M9.899 0.793523C9.59041 0.666657 9.19916 0.666656 8.41666 0.666656C7.63416 0.666656 7.24291 0.666657 6.93433 0.793523C6.52283 0.962682 6.19591 1.28714 6.02546 1.69551C5.94766 1.88194 5.91721 2.09874 5.90529 2.41498C5.88778 2.87972 5.64763 3.3099 5.24181 3.54243C4.83598 3.77496 4.34053 3.76627 3.92624 3.54896C3.64431 3.40107 3.43991 3.31884 3.23832 3.29251C2.79674 3.23481 2.35015 3.35356 1.9968 3.62266C1.73178 3.82447 1.53616 4.16074 1.14491 4.83326C0.753673 5.5058 0.558056 5.84206 0.514456 6.17075C0.456315 6.60899 0.575981 7.05221 0.847123 7.40291C0.970881 7.56299 1.14481 7.69749 1.41475 7.86582C1.81159 8.11332 2.06693 8.53491 2.06691 8.99999C2.06688 9.46507 1.81155 9.88657 1.41475 10.134C1.14476 10.3024 0.970806 10.437 0.84704 10.5971C0.575898 10.9477 0.45624 11.3909 0.514373 11.8292C0.557973 12.1578 0.753598 12.4942 1.14483 13.1667C1.53607 13.8392 1.7317 14.1755 1.99671 14.3772C2.35006 14.6463 2.79666 14.7651 3.23824 14.7074C3.43981 14.6811 3.64421 14.5988 3.92611 14.451C4.34043 14.2337 4.83591 14.225 5.24176 14.4575C5.64761 14.6901 5.88777 15.1202 5.90529 15.5851C5.91721 15.9012 5.94766 16.1181 6.02546 16.3045C6.19591 16.7128 6.52283 17.0373 6.93433 17.2065C7.24291 17.3333 7.63416 17.3333 8.41666 17.3333C9.19916 17.3333 9.59041 17.3333 9.899 17.2065C10.3105 17.0373 10.6374 16.7128 10.8078 16.3045C10.8857 16.1181 10.9162 15.9012 10.9281 15.585C10.9456 15.1202 11.1857 14.6901 11.5915 14.4575C11.9973 14.2249 12.4928 14.2337 12.9072 14.451C13.1891 14.5988 13.3934 14.681 13.595 14.7073C14.0366 14.7651 14.4832 14.6463 14.8365 14.3772C15.1016 14.1754 15.2972 13.8392 15.6884 13.1666C16.0797 12.4941 16.2752 12.1578 16.3189 11.8292C16.377 11.3909 16.2573 10.9477 15.9862 10.597C15.8624 10.4369 15.6885 10.3023 15.4185 10.134C15.0217 9.88657 14.7664 9.46499 14.7664 8.99991C14.7664 8.53482 15.0217 8.11341 15.4185 7.86599C15.6886 7.69757 15.8625 7.56307 15.9863 7.40291C16.2574 7.05226 16.3771 6.60905 16.319 6.1708C16.2753 5.84211 16.0797 5.50585 15.6885 4.83332C15.2972 4.1608 15.1017 3.82453 14.8366 3.62271C14.4832 3.35362 14.0367 3.23486 13.5951 3.29256C13.3935 3.3189 13.1891 3.40112 12.9072 3.54899C12.4929 3.76631 11.9974 3.77501 11.5916 3.54246C11.1857 3.30991 10.9456 2.87971 10.928 2.41494C10.9161 2.09872 10.8857 1.88193 10.8078 1.69551C10.6374 1.28714 10.3105 0.962682 9.899 0.793523ZM8.41666 11.5C9.80791 11.5 10.9357 10.3807 10.9357 8.99999C10.9357 7.61924 9.80791 6.49999 8.41666 6.49999C7.02541 6.49999 5.89763 7.61924 5.89763 8.99999C5.89763 10.3807 7.02541 11.5 8.41666 11.5Z" fill="#F1F1F1"/>
</svg>
