<svg width="12" height="12" viewBox="0 0 12 12" fill="none" xmlns="http://www.w3.org/2000/svg">
<path fill-rule="evenodd" clip-rule="evenodd" d="M9.54592 3.47488C8.37434 4.64645 8.37434 6.54594 9.54591 7.71752L11.3137 9.48528C11.7042 9.8758 11.7042 10.509 11.3137 10.8995C10.9232 11.29 10.29 11.29 9.89947 10.8995L8.1317 9.13173C6.96013 7.96016 5.06063 7.96016 3.88906 9.13173L2.1213 10.8995C1.73077 11.29 1.09761 11.29 0.707084 10.8995C0.31656 10.509 0.31656 9.8758 0.707084 9.48528L2.47485 7.71752C3.64642 6.54594 3.64642 4.64645 2.47485 3.47488L0.707078 1.70711C0.316553 1.31658 0.316554 0.683417 0.707078 0.292893C1.0976 -0.0976313 1.73077 -0.0976309 2.12129 0.292893L3.88906 2.06066C5.06063 3.23224 6.96013 3.23224 8.1317 2.06066L9.89947 0.292893C10.29 -0.0976309 10.9232 -0.0976313 11.3137 0.292893C11.7042 0.683417 11.7042 1.31658 11.3137 1.70711L9.54592 3.47488Z" fill="#F1F1F1"/>
</svg>
